<svg width="32" height="33" viewBox="0 0 32 33" fill="none" xmlns="http://www.w3.org/2000/svg">
<g clip-path="url(#clip0_237_16356)">
<path d="M4.33934 32.5C3.50624 32.5 2.79714 32.2169 2.21205 31.6506C1.62667 31.084 1.33398 30.3976 1.33398 29.5913V7.01843C1.33398 6.21211 1.62667 5.52581 2.21205 4.95953C2.79714 4.39297 3.50756 4.10969 4.34331 4.10969H6.96253V0.5H9.49712V4.10969H22.5721V0.5H25.0388V4.10969H27.658C28.4937 4.10969 29.2042 4.39297 29.7892 4.95953C30.3746 5.52581 30.6673 6.21211 30.6673 7.01843V29.5913C30.6673 30.3976 30.3746 31.084 29.7892 31.6506C29.2042 32.2169 28.4951 32.5 27.662 32.5H4.33934ZM4.34331 30.1126H27.658C27.7938 30.1126 27.9181 30.058 28.0309 29.9488C28.144 29.8393 28.2006 29.7188 28.2006 29.5874V13.8137H3.80069V29.5874C3.80069 29.7188 3.85726 29.8393 3.9704 29.9488C4.08324 30.058 4.20755 30.1126 4.34331 30.1126ZM3.80069 11.4263H28.2006V7.02227C28.2006 6.89115 28.144 6.77085 28.0309 6.66135C27.9181 6.55185 27.7938 6.49709 27.658 6.49709H4.34331C4.20755 6.49709 4.08324 6.55185 3.9704 6.66135C3.85726 6.77085 3.80069 6.89115 3.80069 7.02227V11.4263Z" fill="#5C5C5C"/>
</g>
<defs>
<clipPath id="clip0_237_16356">
<rect width="32" height="32" fill="white" transform="translate(0 0.5)"/>
</clipPath>
</defs>
</svg>
