<svg width="20" height="20" viewBox="0 0 20 20" fill="none" xmlns="http://www.w3.org/2000/svg">
<path d="M13.4531 14.4462L14.4464 13.4529L10.7096 9.71165V5.0604H9.31065V10.2837L13.4531 14.4462ZM10.0024 19.2979C8.71657 19.2979 7.50773 19.0536 6.3759 18.5649C5.2439 18.0761 4.25923 17.4127 3.4219 16.5749C2.58473 15.7371 1.92215 14.7533 1.43415 13.6237C0.946148 12.4938 0.702148 11.2867 0.702148 10.0022C0.702148 8.71632 0.946482 7.50749 1.43515 6.37565C1.92398 5.24365 2.58732 4.25899 3.42515 3.42165C4.26298 2.58449 5.24673 1.9219 6.3764 1.4339C7.50623 0.945903 8.7134 0.701904 9.9979 0.701904C11.2837 0.701904 12.4926 0.946238 13.6244 1.4349C14.7564 1.92374 15.7411 2.58707 16.5784 3.4249C17.4156 4.26274 18.0781 5.24649 18.5661 6.37615C19.0541 7.50599 19.2981 8.71315 19.2981 9.99765C19.2981 11.2835 19.0538 12.4923 18.5651 13.6242C18.0763 14.7562 17.413 15.7408 16.5751 16.5782C15.7373 17.4153 14.7536 18.0779 13.6239 18.5659C12.4941 19.0539 11.2869 19.2979 10.0024 19.2979ZM10.0001 17.8989C12.1848 17.8989 14.0475 17.1286 15.5881 15.5879C17.1288 14.0472 17.8991 12.1846 17.8991 9.9999C17.8991 7.81524 17.1288 5.95257 15.5881 4.4119C14.0475 2.87124 12.1848 2.1009 10.0001 2.1009C7.81548 2.1009 5.95282 2.87124 4.41215 4.4119C2.87148 5.95257 2.10115 7.81524 2.10115 9.9999C2.10115 12.1846 2.87148 14.0472 4.41215 15.5879C5.95282 17.1286 7.81548 17.8989 10.0001 17.8989Z" fill="#5C5C5C"/>
</svg>
