<svg width="20" height="20" viewBox="0 0 20 20" fill="none" xmlns="http://www.w3.org/2000/svg">
<path d="M10.0018 12.8797C10.9181 12.8797 11.6962 12.559 12.3362 11.9176C12.9763 11.2764 13.2964 10.4976 13.2964 9.5814C13.2964 8.66515 12.9757 7.88702 12.3343 7.24702C11.6931 6.60688 10.9143 6.28681 9.99808 6.28681C9.08183 6.28681 8.30371 6.60751 7.66371 7.2489C7.02357 7.89015 6.7035 8.6689 6.7035 9.58514C6.7035 10.5014 7.02419 11.2795 7.66558 11.9195C8.30683 12.5597 9.08558 12.8797 10.0018 12.8797ZM10.002 11.7995C9.3869 11.7995 8.86336 11.5842 8.43142 11.1537C7.99961 10.7231 7.78371 10.2004 7.78371 9.58535C7.78371 8.97021 7.99899 8.44667 8.42954 8.01473C8.8601 7.58292 9.38287 7.36702 9.99787 7.36702C10.613 7.36702 11.1366 7.5823 11.5685 8.01285C12.0003 8.44341 12.2162 8.96619 12.2162 9.58119C12.2162 10.1963 12.0009 10.7199 11.5704 11.1518C11.1398 11.5836 10.617 11.7995 10.002 11.7995ZM10.001 15.282C8.1253 15.282 6.4185 14.7635 4.88058 13.7266C3.34267 12.6898 2.20482 11.3087 1.46704 9.58327C2.20482 7.85785 3.34232 6.47674 4.87954 5.43994C6.41662 4.40299 8.12308 3.88452 9.99892 3.88452C11.8746 3.88452 13.5814 4.40299 15.1193 5.43994C16.6572 6.47674 17.7951 7.85785 18.5329 9.58327C17.7951 11.3087 16.6576 12.6898 15.1204 13.7266C13.5833 14.7635 11.8768 15.282 10.001 15.282ZM9.99996 14.1162C11.5459 14.1162 12.97 13.7088 14.2722 12.8941C15.5745 12.0794 16.5668 10.9758 17.2491 9.58327C16.5668 8.19077 15.5745 7.08716 14.2722 6.27244C12.97 5.45772 11.5459 5.05035 9.99996 5.05035C8.45399 5.05035 7.02989 5.45772 5.72767 6.27244C4.42544 7.08716 3.43315 8.19077 2.75079 9.58327C3.43315 10.9758 4.42544 12.0794 5.72767 12.8941C7.02989 13.7088 8.45399 14.1162 9.99996 14.1162Z" fill="#1E2A38"/>
</svg>
