<svg width="20" height="20" viewBox="0 0 20 20" fill="none" xmlns="http://www.w3.org/2000/svg">
<path d="M13.0537 10.8109L12.1745 9.93194C12.3108 9.19694 12.1122 8.5586 11.5789 8.01694C11.0454 7.47527 10.4029 7.27256 9.65142 7.40881L8.77246 6.53173C8.96051 6.44604 9.15614 6.38381 9.35933 6.34506C9.56253 6.30631 9.77565 6.28694 9.99871 6.28694C10.9234 6.28694 11.7043 6.60534 12.3412 7.24215C12.978 7.87909 13.2964 8.65992 13.2964 9.58465C13.2964 9.8077 13.277 10.0246 13.2383 10.2353C13.1995 10.446 13.138 10.6378 13.0537 10.8109ZM15.6266 13.343L14.7843 12.5432C15.2982 12.1507 15.7648 11.7118 16.1839 11.2265C16.6031 10.7412 16.9582 10.1935 17.2491 9.5834C16.5659 8.19617 15.5817 7.09388 14.2964 6.27652C13.0111 5.45916 11.579 5.05048 9.99996 5.05048C9.60843 5.05048 9.20982 5.0811 8.80412 5.14235C8.39829 5.20347 8.01135 5.28958 7.64329 5.40069L6.72912 4.48652C7.24037 4.28402 7.77267 4.13312 8.326 4.03381C8.87947 3.93437 9.43746 3.88465 9.99996 3.88465C11.9079 3.88465 13.6298 4.41194 15.1656 5.46652C16.7016 6.52097 17.824 7.89347 18.5329 9.58402C18.224 10.3058 17.8291 10.9855 17.3481 11.623C16.8671 12.2606 16.2933 12.834 15.6266 13.343ZM16.3837 18.0057L13.0898 14.7332C12.6778 14.894 12.2107 15.0257 11.6883 15.1282C11.1659 15.2308 10.6032 15.2821 9.99996 15.2821C8.08787 15.2821 6.3669 14.7549 4.83704 13.7003C3.30732 12.6458 2.18399 11.2741 1.46704 9.58506C1.77482 8.85909 2.17232 8.18131 2.65954 7.55173C3.14662 6.92215 3.67732 6.37687 4.25162 5.9159L1.97767 3.58256L2.7885 2.77173L17.2114 17.1949L16.3837 18.0057ZM5.07933 6.72673C4.63919 7.06603 4.20544 7.48728 3.77808 7.99048C3.35072 8.49367 3.00829 9.02465 2.75079 9.5834C3.43399 10.9706 4.41822 12.0729 5.7035 12.8903C6.98878 13.7076 8.42093 14.1163 9.99996 14.1163C10.3975 14.1163 10.7937 14.0836 11.1887 14.0182C11.5837 13.9526 11.9065 13.8814 12.157 13.8044L11.067 12.6907C10.9262 12.7485 10.7567 12.7944 10.5585 12.8286C10.3603 12.8628 10.1738 12.8799 9.99892 12.8799C9.07656 12.8799 8.29669 12.5615 7.65933 11.9249C7.02211 11.2883 6.7035 10.5078 6.7035 9.5834C6.7035 9.41534 6.72058 9.23596 6.75475 9.04527C6.78892 8.85471 6.83489 8.6834 6.89267 8.53131L5.07933 6.72673Z" fill="#1E2A38"/>
</svg>
