<svg width="17" height="16" viewBox="0 0 17 16" fill="none" xmlns="http://www.w3.org/2000/svg">
<path d="M7.43406 11.4604L12.9189 5.97584L12.0911 5.14813L7.43406 9.80501L5.0926 7.46376L4.2649 8.29146L7.43406 11.4604ZM8.60177 15.7481C7.53024 15.7481 6.52288 15.5445 5.57969 15.1373C4.63635 14.7299 3.8158 14.1772 3.11802 13.479C2.42038 12.7808 1.86823 11.961 1.46156 11.0196C1.0549 10.0781 0.851562 9.07209 0.851562 8.00167C0.851562 6.93014 1.05517 5.92278 1.4624 4.97959C1.86976 4.03626 2.42253 3.2157 3.12073 2.51792C3.81892 1.82028 4.63871 1.26813 5.5801 0.861464C6.52163 0.454797 7.5276 0.251465 8.59802 0.251465C9.66955 0.251465 10.6769 0.455076 11.6201 0.862298C12.5634 1.26966 13.384 1.82244 14.0818 2.52063C14.7794 3.21883 15.3316 4.03862 15.7382 4.98001C16.1449 5.92153 16.3482 6.92751 16.3482 7.99792C16.3482 9.06945 16.1446 10.0768 15.7374 11.02C15.33 11.9633 14.7773 12.7839 14.0791 13.4817C13.3809 14.1793 12.5611 14.7315 11.6197 15.1381C10.6782 15.5448 9.67219 15.7481 8.60177 15.7481Z" fill="#147618"/>
</svg>
