<svg width="60" height="60" viewBox="0 0 60 60" fill="none" xmlns="http://www.w3.org/2000/svg">
<path d="M0 8C0 3.58172 3.58172 0 8 0H52C56.4183 0 60 3.58172 60 8V52C60 56.4183 56.4183 60 52 60H8C3.58172 60 0 56.4183 0 52V8Z" fill="#0F6CDD"/>
<path d="M29.8673 17.5998C32.8683 17.5998 35.3011 15.2001 35.3011 12.2399C35.3011 9.2798 32.8683 6.88013 29.8673 6.88013C26.8664 6.88013 24.4336 9.2798 24.4336 12.2399C24.4336 15.2001 26.8664 17.5998 29.8673 17.5998Z" fill="white" stroke="white" stroke-width="0.215369"/>
<path d="M13.1685 35.1169C16.1695 35.1169 18.6022 32.7172 18.6022 29.757C18.6022 26.7969 16.1695 24.3972 13.1685 24.3972C10.1675 24.3972 7.73474 26.7969 7.73474 29.757C7.73474 32.7172 10.1675 35.1169 13.1685 35.1169Z" fill="white" stroke="white" stroke-width="0.215369"/>
<path d="M46.5662 35.1169C49.5672 35.1169 51.9999 32.7172 51.9999 29.757C51.9999 26.7969 49.5672 24.3972 46.5662 24.3972C43.5652 24.3972 41.1324 26.7969 41.1324 29.757C41.1324 32.7172 43.5652 35.1169 46.5662 35.1169Z" fill="white" stroke="white" stroke-width="0.215369"/>
<path d="M29.8673 53.4186C32.8683 53.4186 35.3011 51.0189 35.3011 48.0588C35.3011 45.0987 32.8683 42.699 29.8673 42.699C26.8664 42.699 24.4336 45.0987 24.4336 48.0588C24.4336 51.0189 26.8664 53.4186 29.8673 53.4186Z" fill="white" stroke="white" stroke-width="0.215369"/>
<path d="M32.9061 44.5202L44.8339 32.7548" stroke="white" stroke-width="2.15369"/>
<path d="M29.8673 48.0592L29.8674 12.2399" stroke="white" stroke-width="2.15369"/>
<path d="M29.8673 29.7573H46.5662" stroke="white" stroke-width="2.15369"/>
<path d="M27.2164 22.5675H32.5177C34.7867 22.5675 36.6264 24.3816 36.6264 26.6197V33.1561C36.6264 35.3943 34.7867 37.209 32.5177 37.209H27.2164C24.9474 37.2089 23.1084 35.3943 23.1084 33.1561V26.6197C23.1084 24.3817 24.9475 22.5676 27.2164 22.5675Z" fill="white" stroke="white" stroke-width="0.215369"/>
<path d="M14.882 27.7871L26.8096 16.0216" stroke="white" stroke-width="2.15369"/>
</svg>
