<svg width="275" height="60" viewBox="0 0 275 60" fill="none" xmlns="http://www.w3.org/2000/svg">
<path d="M0 8C0 3.58172 3.58172 0 8 0H52C56.4183 0 60 3.58172 60 8V52C60 56.4183 56.4183 60 52 60H8C3.58172 60 0 56.4183 0 52V8Z" fill="white"/>
<path d="M29.8673 17.5998C32.8683 17.5998 35.3011 15.2001 35.3011 12.2399C35.3011 9.2798 32.8683 6.88013 29.8673 6.88013C26.8664 6.88013 24.4336 9.2798 24.4336 12.2399C24.4336 15.2001 26.8664 17.5998 29.8673 17.5998Z" fill="#0F6CDD" stroke="#0F6CDD" stroke-width="0.215369"/>
<path d="M13.1686 35.1169C16.1695 35.1169 18.6023 32.7172 18.6023 29.757C18.6023 26.7969 16.1695 24.3972 13.1686 24.3972C10.1676 24.3972 7.7348 26.7969 7.7348 29.757C7.7348 32.7172 10.1676 35.1169 13.1686 35.1169Z" fill="#0F6CDD" stroke="#0F6CDD" stroke-width="0.215369"/>
<path d="M46.5663 35.1169C49.5672 35.1169 52 32.7172 52 29.757C52 26.7969 49.5672 24.3972 46.5663 24.3972C43.5653 24.3972 41.1325 26.7969 41.1325 29.757C41.1325 32.7172 43.5653 35.1169 46.5663 35.1169Z" fill="#0F6CDD" stroke="#0F6CDD" stroke-width="0.215369"/>
<path d="M29.8673 53.4186C32.8683 53.4186 35.3011 51.0189 35.3011 48.0588C35.3011 45.0987 32.8683 42.699 29.8673 42.699C26.8664 42.699 24.4336 45.0987 24.4336 48.0588C24.4336 51.0189 26.8664 53.4186 29.8673 53.4186Z" fill="#0F6CDD" stroke="#0F6CDD" stroke-width="0.215369"/>
<path d="M32.9062 44.5201L44.8339 32.7546" stroke="#0F6CDD" stroke-width="2.15369"/>
<path d="M29.8674 48.059L29.8674 12.2397" stroke="#0F6CDD" stroke-width="2.15369"/>
<path d="M29.8674 29.7573H46.5662" stroke="#0F6CDD" stroke-width="2.15369"/>
<path d="M27.2166 22.5676H32.5179C34.7868 22.5676 36.6266 24.3817 36.6266 26.6198V33.1562C36.6266 35.3944 34.7868 37.2091 32.5179 37.2091H27.2166C24.9476 37.209 23.1085 35.3944 23.1085 33.1562V26.6198C23.1085 24.3818 24.9476 22.5677 27.2166 22.5676Z" fill="#0F6CDD" stroke="#0F6CDD" stroke-width="0.215369"/>
<path d="M14.882 27.7872L26.8097 16.0217" stroke="#0F6CDD" stroke-width="2.15369"/>
<path d="M98.784 25.124C98.528 24.132 98.176 23.22 97.728 22.388C97.28 21.556 96.704 20.836 96 20.228C95.296 19.62 94.464 19.156 93.504 18.836C92.576 18.484 91.488 18.308 90.24 18.308C88.416 18.308 86.832 18.676 85.488 19.412C84.176 20.148 83.104 21.14 82.272 22.388C81.44 23.604 80.816 24.996 80.4 26.564C80.016 28.132 79.824 29.732 79.824 31.364C79.824 32.996 80.016 34.596 80.4 36.164C80.816 37.732 81.44 39.14 82.272 40.388C83.104 41.604 84.176 42.58 85.488 43.316C86.832 44.052 88.416 44.42 90.24 44.42C91.584 44.42 92.768 44.196 93.792 43.748C94.816 43.268 95.696 42.628 96.432 41.828C97.168 40.996 97.744 40.036 98.16 38.948C98.576 37.86 98.848 36.692 98.976 35.444H104.832C104.704 37.492 104.256 39.364 103.488 41.06C102.752 42.756 101.744 44.228 100.464 45.476C99.184 46.692 97.68 47.636 95.952 48.308C94.224 48.98 92.32 49.316 90.24 49.316C87.68 49.316 85.376 48.852 83.328 47.924C81.312 46.964 79.6 45.668 78.192 44.036C76.784 42.404 75.696 40.5 74.928 38.324C74.192 36.148 73.824 33.828 73.824 31.364C73.824 28.932 74.192 26.628 74.928 24.452C75.696 22.276 76.784 20.372 78.192 18.74C79.6 17.108 81.312 15.812 83.328 14.852C85.376 13.892 87.68 13.412 90.24 13.412C92.16 13.412 93.968 13.684 95.664 14.228C97.36 14.74 98.848 15.508 100.128 16.532C101.44 17.524 102.496 18.74 103.296 20.18C104.096 21.62 104.592 23.268 104.784 25.124H98.784ZM126.561 33.908C126.497 33.044 126.305 32.212 125.985 31.412C125.697 30.612 125.281 29.924 124.737 29.348C124.225 28.74 123.585 28.26 122.817 27.908C122.081 27.524 121.249 27.332 120.321 27.332C119.361 27.332 118.481 27.508 117.681 27.86C116.913 28.18 116.241 28.644 115.665 29.252C115.121 29.828 114.673 30.516 114.321 31.316C114.001 32.116 113.825 32.98 113.793 33.908H126.561ZM113.793 37.508C113.793 38.468 113.921 39.396 114.177 40.292C114.465 41.188 114.881 41.972 115.425 42.644C115.969 43.316 116.657 43.86 117.489 44.276C118.321 44.66 119.313 44.852 120.465 44.852C122.065 44.852 123.345 44.516 124.305 43.844C125.297 43.14 126.033 42.1 126.513 40.724H131.697C131.409 42.068 130.913 43.268 130.209 44.324C129.505 45.38 128.657 46.276 127.665 47.012C126.673 47.716 125.553 48.244 124.305 48.596C123.089 48.98 121.809 49.172 120.465 49.172C118.513 49.172 116.785 48.852 115.281 48.212C113.777 47.572 112.497 46.676 111.441 45.524C110.417 44.372 109.633 42.996 109.089 41.396C108.577 39.796 108.321 38.036 108.321 36.116C108.321 34.356 108.593 32.692 109.137 31.124C109.713 29.524 110.513 28.132 111.537 26.948C112.593 25.732 113.857 24.772 115.329 24.068C116.801 23.364 118.465 23.012 120.321 23.012C122.273 23.012 124.017 23.428 125.553 24.26C127.121 25.06 128.417 26.132 129.441 27.476C130.465 28.82 131.201 30.372 131.649 32.132C132.129 33.86 132.257 35.652 132.033 37.508H113.793ZM136.193 23.684H141.377V27.332L141.473 27.428C142.305 26.052 143.393 24.98 144.737 24.212C146.081 23.412 147.569 23.012 149.201 23.012C151.921 23.012 154.065 23.716 155.633 25.124C157.201 26.532 157.984 28.644 157.984 31.46V48.5H152.513V32.9C152.449 30.948 152.033 29.54 151.265 28.676C150.497 27.78 149.297 27.332 147.665 27.332C146.737 27.332 145.905 27.508 145.169 27.86C144.433 28.18 143.809 28.644 143.297 29.252C142.785 29.828 142.385 30.516 142.097 31.316C141.809 32.116 141.665 32.964 141.665 33.86V48.5H136.193V23.684ZM161.259 23.684H165.387V16.244H170.859V23.684H175.803V27.764H170.859V41.012C170.859 41.588 170.875 42.084 170.907 42.5C170.971 42.916 171.083 43.268 171.243 43.556C171.435 43.844 171.707 44.068 172.059 44.228C172.411 44.356 172.891 44.42 173.499 44.42C173.883 44.42 174.267 44.42 174.651 44.42C175.035 44.388 175.419 44.324 175.803 44.228V48.452C175.195 48.516 174.603 48.58 174.027 48.644C173.451 48.708 172.859 48.74 172.251 48.74C170.811 48.74 169.643 48.612 168.747 48.356C167.883 48.068 167.195 47.668 166.683 47.156C166.203 46.612 165.867 45.94 165.675 45.14C165.515 44.34 165.419 43.428 165.387 42.404V27.764H161.259V23.684ZM200.523 42.98C200.523 43.652 200.603 44.132 200.763 44.42C200.955 44.708 201.307 44.852 201.819 44.852C201.979 44.852 202.171 44.852 202.395 44.852C202.619 44.852 202.875 44.82 203.163 44.756V48.548C202.971 48.612 202.715 48.676 202.395 48.74C202.107 48.836 201.803 48.916 201.483 48.98C201.163 49.044 200.843 49.092 200.523 49.124C200.203 49.156 199.931 49.172 199.707 49.172C198.587 49.172 197.659 48.948 196.923 48.5C196.187 48.052 195.707 47.268 195.483 46.148C194.395 47.204 193.051 47.972 191.451 48.452C189.883 48.932 188.363 49.172 186.891 49.172C185.771 49.172 184.699 49.012 183.675 48.692C182.651 48.404 181.739 47.972 180.939 47.396C180.171 46.788 179.547 46.036 179.067 45.14C178.619 44.212 178.395 43.14 178.395 41.924C178.395 40.388 178.667 39.14 179.211 38.18C179.787 37.22 180.523 36.468 181.419 35.924C182.347 35.38 183.371 34.996 184.491 34.772C185.643 34.516 186.795 34.324 187.947 34.196C188.939 34.004 189.883 33.876 190.779 33.812C191.675 33.716 192.459 33.572 193.131 33.38C193.835 33.188 194.379 32.9 194.763 32.516C195.179 32.1 195.387 31.492 195.387 30.692C195.387 29.988 195.211 29.412 194.859 28.964C194.539 28.516 194.123 28.18 193.611 27.956C193.131 27.7 192.587 27.54 191.979 27.476C191.371 27.38 190.795 27.332 190.251 27.332C188.715 27.332 187.451 27.652 186.459 28.292C185.467 28.932 184.907 29.924 184.779 31.268H179.307C179.403 29.668 179.787 28.34 180.459 27.284C181.131 26.228 181.979 25.38 183.003 24.74C184.059 24.1 185.243 23.652 186.555 23.396C187.867 23.14 189.211 23.012 190.587 23.012C191.803 23.012 193.003 23.14 194.187 23.396C195.371 23.652 196.427 24.068 197.355 24.644C198.315 25.22 199.083 25.972 199.659 26.9C200.235 27.796 200.523 28.9 200.523 30.212V42.98ZM195.051 36.068C194.219 36.612 193.195 36.948 191.979 37.076C190.763 37.172 189.547 37.332 188.331 37.556C187.755 37.652 187.195 37.796 186.651 37.988C186.107 38.148 185.627 38.388 185.211 38.708C184.795 38.996 184.459 39.396 184.203 39.908C183.979 40.388 183.867 40.98 183.867 41.684C183.867 42.292 184.043 42.804 184.395 43.22C184.747 43.636 185.163 43.972 185.643 44.228C186.155 44.452 186.699 44.612 187.275 44.708C187.883 44.804 188.427 44.852 188.907 44.852C189.515 44.852 190.171 44.772 190.875 44.612C191.579 44.452 192.235 44.18 192.843 43.796C193.483 43.412 194.011 42.932 194.427 42.356C194.843 41.748 195.051 41.012 195.051 40.148V36.068ZM228.203 48.5H222.827V45.044H222.731C222.059 46.292 221.051 47.3 219.707 48.068C218.395 48.804 217.051 49.172 215.675 49.172C212.411 49.172 210.043 48.372 208.571 46.772C207.131 45.14 206.411 42.692 206.411 39.428V23.684H211.883V38.9C211.883 41.076 212.299 42.612 213.131 43.508C213.963 44.404 215.131 44.852 216.635 44.852C217.787 44.852 218.747 44.676 219.515 44.324C220.283 43.972 220.907 43.508 221.387 42.932C221.867 42.324 222.203 41.604 222.395 40.772C222.619 39.94 222.731 39.044 222.731 38.084V23.684H228.203V48.5ZM233.974 23.684H239.11V28.484H239.206C239.366 27.812 239.67 27.156 240.118 26.516C240.598 25.876 241.158 25.3 241.798 24.788C242.47 24.244 243.206 23.812 244.006 23.492C244.806 23.172 245.622 23.012 246.454 23.012C247.094 23.012 247.526 23.028 247.75 23.06C248.006 23.092 248.262 23.124 248.518 23.156V28.436C248.134 28.372 247.734 28.324 247.318 28.292C246.934 28.228 246.55 28.196 246.166 28.196C245.238 28.196 244.358 28.388 243.526 28.772C242.726 29.124 242.022 29.668 241.414 30.404C240.806 31.108 240.326 31.988 239.974 33.044C239.622 34.1 239.446 35.316 239.446 36.692V48.5H233.974V23.684ZM271.633 42.98C271.633 43.652 271.713 44.132 271.873 44.42C272.065 44.708 272.417 44.852 272.929 44.852C273.089 44.852 273.281 44.852 273.505 44.852C273.729 44.852 273.985 44.82 274.273 44.756V48.548C274.081 48.612 273.825 48.676 273.505 48.74C273.217 48.836 272.913 48.916 272.593 48.98C272.273 49.044 271.953 49.092 271.633 49.124C271.313 49.156 271.041 49.172 270.817 49.172C269.697 49.172 268.769 48.948 268.033 48.5C267.297 48.052 266.817 47.268 266.593 46.148C265.505 47.204 264.161 47.972 262.561 48.452C260.993 48.932 259.473 49.172 258.001 49.172C256.881 49.172 255.809 49.012 254.785 48.692C253.761 48.404 252.849 47.972 252.049 47.396C251.281 46.788 250.657 46.036 250.177 45.14C249.729 44.212 249.505 43.14 249.505 41.924C249.505 40.388 249.777 39.14 250.321 38.18C250.897 37.22 251.633 36.468 252.529 35.924C253.457 35.38 254.481 34.996 255.601 34.772C256.753 34.516 257.905 34.324 259.057 34.196C260.049 34.004 260.993 33.876 261.889 33.812C262.785 33.716 263.569 33.572 264.241 33.38C264.945 33.188 265.489 32.9 265.873 32.516C266.289 32.1 266.497 31.492 266.497 30.692C266.497 29.988 266.321 29.412 265.969 28.964C265.649 28.516 265.233 28.18 264.721 27.956C264.241 27.7 263.697 27.54 263.089 27.476C262.481 27.38 261.905 27.332 261.361 27.332C259.825 27.332 258.561 27.652 257.569 28.292C256.577 28.932 256.017 29.924 255.889 31.268H250.417C250.513 29.668 250.897 28.34 251.569 27.284C252.241 26.228 253.089 25.38 254.113 24.74C255.169 24.1 256.353 23.652 257.665 23.396C258.977 23.14 260.321 23.012 261.697 23.012C262.913 23.012 264.113 23.14 265.297 23.396C266.481 23.652 267.537 24.068 268.465 24.644C269.425 25.22 270.193 25.972 270.769 26.9C271.345 27.796 271.633 28.9 271.633 30.212V42.98ZM266.161 36.068C265.329 36.612 264.305 36.948 263.089 37.076C261.873 37.172 260.657 37.332 259.441 37.556C258.865 37.652 258.305 37.796 257.761 37.988C257.217 38.148 256.737 38.388 256.321 38.708C255.905 38.996 255.569 39.396 255.313 39.908C255.089 40.388 254.977 40.98 254.977 41.684C254.977 42.292 255.153 42.804 255.505 43.22C255.857 43.636 256.273 43.972 256.753 44.228C257.265 44.452 257.809 44.612 258.385 44.708C258.993 44.804 259.537 44.852 260.017 44.852C260.625 44.852 261.281 44.772 261.985 44.612C262.689 44.452 263.345 44.18 263.953 43.796C264.593 43.412 265.121 42.932 265.537 42.356C265.953 41.748 266.161 41.012 266.161 40.148V36.068Z" fill="#F5F5F5"/>
</svg>
