<svg width="186" height="43" viewBox="0 0 186 43" fill="none" xmlns="http://www.w3.org/2000/svg">
<path d="M0 8.5C0 4.08172 3.58172 0.5 8 0.5H34C38.4183 0.5 42 4.08172 42 8.5V34.5C42 38.9183 38.4183 42.5 34 42.5H8C3.58172 42.5 0 38.9183 0 34.5V8.5Z" fill="white"/>
<path d="M20.9071 12.8197C23.0078 12.8197 24.7108 11.1399 24.7108 9.06779C24.7108 6.99569 23.0078 5.31592 20.9071 5.31592C18.8065 5.31592 17.1035 6.99569 17.1035 9.06779C17.1035 11.1399 18.8065 12.8197 20.9071 12.8197Z" fill="#0F6CDD" stroke="#0F6CDD" stroke-width="0.226138"/>
<path d="M9.21793 25.0819C11.3186 25.0819 13.0216 23.4021 13.0216 21.33C13.0216 19.2579 11.3186 17.5781 9.21793 17.5781C7.11725 17.5781 5.41431 19.2579 5.41431 21.33C5.41431 23.4021 7.11725 25.0819 9.21793 25.0819Z" fill="#0F6CDD" stroke="#0F6CDD" stroke-width="0.226138"/>
<path d="M32.5964 25.0819C34.697 25.0819 36.4 23.4021 36.4 21.33C36.4 19.2579 34.697 17.5781 32.5964 17.5781C30.4957 17.5781 28.7927 19.2579 28.7927 21.33C28.7927 23.4021 30.4957 25.0819 32.5964 25.0819Z" fill="#0F6CDD" stroke="#0F6CDD" stroke-width="0.226138"/>
<path d="M20.9071 37.8932C23.0078 37.8932 24.7108 36.2134 24.7108 34.1413C24.7108 32.0692 23.0078 30.3894 20.9071 30.3894C18.8065 30.3894 17.1035 32.0692 17.1035 34.1413C17.1035 36.2134 18.8065 37.8932 20.9071 37.8932Z" fill="#0F6CDD" stroke="#0F6CDD" stroke-width="0.226138"/>
<path d="M23.0343 31.664L31.3837 23.4282" stroke="#0F6CDD" stroke-width="2.26138"/>
<path d="M20.9071 34.1414L20.9072 9.06787" stroke="#0F6CDD" stroke-width="2.26138"/>
<path d="M20.9071 21.3301H32.5963" stroke="#0F6CDD" stroke-width="2.26138"/>
<path d="M19.0515 16.2974H22.7624C24.3507 16.2974 25.6385 17.5672 25.6385 19.1339V23.7094C25.6385 25.2761 24.3507 26.5464 22.7624 26.5464H19.0515C17.4632 26.5464 16.1759 25.2761 16.1759 23.7094V19.1339C16.1759 17.5673 17.4633 16.2974 19.0515 16.2974Z" fill="#0F6CDD" stroke="#0F6CDD" stroke-width="0.226138"/>
<path d="M10.4174 19.9509L18.7667 11.7151" stroke="#0F6CDD" stroke-width="2.26138"/>
<path d="M67.856 18.416C67.6853 17.7547 67.4507 17.1467 67.152 16.592C66.8533 16.0373 66.4693 15.5573 66 15.152C65.5307 14.7467 64.976 14.4373 64.336 14.224C63.7173 13.9893 62.992 13.872 62.16 13.872C60.944 13.872 59.888 14.1173 58.992 14.608C58.1173 15.0987 57.4027 15.76 56.848 16.592C56.2933 17.4027 55.8773 18.3307 55.6 19.376C55.344 20.4213 55.216 21.488 55.216 22.576C55.216 23.664 55.344 24.7307 55.6 25.776C55.8773 26.8213 56.2933 27.76 56.848 28.592C57.4027 29.4027 58.1173 30.0533 58.992 30.544C59.888 31.0347 60.944 31.28 62.16 31.28C63.056 31.28 63.8453 31.1307 64.528 30.832C65.2107 30.512 65.7973 30.0853 66.288 29.552C66.7787 28.9973 67.1627 28.3573 67.44 27.632C67.7173 26.9067 67.8987 26.128 67.984 25.296H71.888C71.8027 26.6613 71.504 27.9093 70.992 29.04C70.5013 30.1707 69.8293 31.152 68.976 31.984C68.1227 32.7947 67.12 33.424 65.968 33.872C64.816 34.32 63.5467 34.544 62.16 34.544C60.4533 34.544 58.9173 34.2347 57.552 33.616C56.208 32.976 55.0667 32.112 54.128 31.024C53.1893 29.936 52.464 28.6667 51.952 27.216C51.4613 25.7653 51.216 24.2187 51.216 22.576C51.216 20.9547 51.4613 19.4187 51.952 17.968C52.464 16.5173 53.1893 15.248 54.128 14.16C55.0667 13.072 56.208 12.208 57.552 11.568C58.9173 10.928 60.4533 10.608 62.16 10.608C63.44 10.608 64.6453 10.7893 65.776 11.152C66.9067 11.4933 67.8987 12.0053 68.752 12.688C69.6267 13.3493 70.3307 14.16 70.864 15.12C71.3973 16.08 71.728 17.1787 71.856 18.416H67.856ZM86.3738 24.272C86.3311 23.696 86.2031 23.1413 85.9898 22.608C85.7978 22.0747 85.5204 21.616 85.1578 21.232C84.8164 20.8267 84.3898 20.5067 83.8778 20.272C83.3871 20.016 82.8324 19.888 82.2138 19.888C81.5738 19.888 80.9871 20.0053 80.4538 20.24C79.9418 20.4533 79.4938 20.7627 79.1098 21.168C78.7471 21.552 78.4484 22.0107 78.2138 22.544C78.0004 23.0773 77.8831 23.6533 77.8618 24.272H86.3738ZM77.8618 26.672C77.8618 27.312 77.9471 27.9307 78.1178 28.528C78.3098 29.1253 78.5871 29.648 78.9498 30.096C79.3124 30.544 79.7711 30.9067 80.3258 31.184C80.8804 31.44 81.5418 31.568 82.3098 31.568C83.3764 31.568 84.2298 31.344 84.8698 30.896C85.5311 30.4267 86.0218 29.7333 86.3418 28.816H89.7978C89.6058 29.712 89.2751 30.512 88.8058 31.216C88.3364 31.92 87.7711 32.5173 87.1098 33.008C86.4484 33.4773 85.7018 33.8293 84.8698 34.064C84.0591 34.32 83.2058 34.448 82.3098 34.448C81.0084 34.448 79.8564 34.2347 78.8538 33.808C77.8511 33.3813 76.9978 32.784 76.2938 32.016C75.6111 31.248 75.0884 30.3307 74.7258 29.264C74.3844 28.1973 74.2138 27.024 74.2138 25.744C74.2138 24.5707 74.3951 23.4613 74.7578 22.416C75.1418 21.3493 75.6751 20.4213 76.3578 19.632C77.0618 18.8213 77.9044 18.1813 78.8858 17.712C79.8671 17.2427 80.9764 17.008 82.2138 17.008C83.5151 17.008 84.6778 17.2853 85.7018 17.84C86.7471 18.3733 87.6111 19.088 88.2938 19.984C88.9764 20.88 89.4671 21.9147 89.7658 23.088C90.0858 24.24 90.1711 25.4347 90.0218 26.672H77.8618ZM92.795 17.456H96.251V19.888L96.315 19.952C96.8697 19.0347 97.595 18.32 98.491 17.808C99.387 17.2747 100.379 17.008 101.467 17.008C103.28 17.008 104.71 17.4773 105.755 18.416C106.8 19.3547 107.323 20.7627 107.323 22.64V34H103.675V23.6C103.632 22.2987 103.355 21.36 102.843 20.784C102.331 20.1867 101.531 19.888 100.443 19.888C99.8243 19.888 99.2697 20.0053 98.779 20.24C98.2883 20.4533 97.8723 20.7627 97.531 21.168C97.1897 21.552 96.923 22.0107 96.731 22.544C96.539 23.0773 96.443 23.6427 96.443 24.24V34H92.795V17.456ZM109.506 17.456H112.258V12.496H115.906V17.456H119.202V20.176H115.906V29.008C115.906 29.392 115.917 29.7227 115.938 30C115.981 30.2773 116.055 30.512 116.162 30.704C116.29 30.896 116.471 31.0453 116.706 31.152C116.941 31.2373 117.261 31.28 117.666 31.28C117.922 31.28 118.178 31.28 118.434 31.28C118.69 31.2587 118.946 31.216 119.202 31.152V33.968C118.797 34.0107 118.402 34.0533 118.018 34.096C117.634 34.1387 117.239 34.16 116.834 34.16C115.874 34.16 115.095 34.0747 114.498 33.904C113.922 33.712 113.463 33.4453 113.122 33.104C112.802 32.7413 112.578 32.2933 112.45 31.76C112.343 31.2267 112.279 30.6187 112.258 29.936V20.176H109.506V17.456ZM135.682 30.32C135.682 30.768 135.736 31.088 135.842 31.28C135.97 31.472 136.205 31.568 136.546 31.568C136.653 31.568 136.781 31.568 136.93 31.568C137.08 31.568 137.25 31.5467 137.442 31.504V34.032C137.314 34.0747 137.144 34.1173 136.93 34.16C136.738 34.224 136.536 34.2773 136.322 34.32C136.109 34.3627 135.896 34.3947 135.682 34.416C135.469 34.4373 135.288 34.448 135.138 34.448C134.392 34.448 133.773 34.2987 133.282 34C132.792 33.7013 132.472 33.1787 132.322 32.432C131.597 33.136 130.701 33.648 129.634 33.968C128.589 34.288 127.576 34.448 126.594 34.448C125.848 34.448 125.133 34.3413 124.45 34.128C123.768 33.936 123.16 33.648 122.626 33.264C122.114 32.8587 121.698 32.3573 121.378 31.76C121.08 31.1413 120.93 30.4267 120.93 29.616C120.93 28.592 121.112 27.76 121.474 27.12C121.858 26.48 122.349 25.9787 122.946 25.616C123.565 25.2533 124.248 24.9973 124.994 24.848C125.762 24.6773 126.53 24.5493 127.298 24.464C127.96 24.336 128.589 24.2507 129.186 24.208C129.784 24.144 130.306 24.048 130.754 23.92C131.224 23.792 131.586 23.6 131.842 23.344C132.12 23.0667 132.258 22.6613 132.258 22.128C132.258 21.6587 132.141 21.2747 131.906 20.976C131.693 20.6773 131.416 20.4533 131.074 20.304C130.754 20.1333 130.392 20.0267 129.986 19.984C129.581 19.92 129.197 19.888 128.834 19.888C127.81 19.888 126.968 20.1013 126.306 20.528C125.645 20.9547 125.272 21.616 125.186 22.512H121.538C121.602 21.4453 121.858 20.56 122.306 19.856C122.754 19.152 123.32 18.5867 124.002 18.16C124.706 17.7333 125.496 17.4347 126.37 17.264C127.245 17.0933 128.141 17.008 129.058 17.008C129.869 17.008 130.669 17.0933 131.458 17.264C132.248 17.4347 132.952 17.712 133.57 18.096C134.21 18.48 134.722 18.9813 135.106 19.6C135.49 20.1973 135.682 20.9333 135.682 21.808V30.32ZM132.034 25.712C131.48 26.0747 130.797 26.2987 129.986 26.384C129.176 26.448 128.365 26.5547 127.554 26.704C127.17 26.768 126.797 26.864 126.434 26.992C126.072 27.0987 125.752 27.2587 125.474 27.472C125.197 27.664 124.973 27.9307 124.802 28.272C124.653 28.592 124.578 28.9867 124.578 29.456C124.578 29.8613 124.696 30.2027 124.93 30.48C125.165 30.7573 125.442 30.9813 125.762 31.152C126.104 31.3013 126.466 31.408 126.85 31.472C127.256 31.536 127.618 31.568 127.938 31.568C128.344 31.568 128.781 31.5147 129.25 31.408C129.72 31.3013 130.157 31.12 130.562 30.864C130.989 30.608 131.341 30.288 131.618 29.904C131.896 29.4987 132.034 29.008 132.034 28.432V25.712ZM154.135 34H150.552V31.696H150.488C150.04 32.528 149.368 33.2 148.472 33.712C147.597 34.2027 146.701 34.448 145.784 34.448C143.608 34.448 142.029 33.9147 141.048 32.848C140.088 31.76 139.608 30.128 139.608 27.952V17.456H143.256V27.6C143.256 29.0507 143.533 30.0747 144.088 30.672C144.642 31.2693 145.421 31.568 146.424 31.568C147.192 31.568 147.832 31.4507 148.344 31.216C148.856 30.9813 149.272 30.672 149.592 30.288C149.912 29.8827 150.136 29.4027 150.264 28.848C150.413 28.2933 150.488 27.696 150.488 27.056V17.456H154.135V34ZM157.983 17.456H161.407V20.656H161.471C161.577 20.208 161.78 19.7707 162.079 19.344C162.399 18.9173 162.772 18.5333 163.199 18.192C163.647 17.8293 164.137 17.5413 164.671 17.328C165.204 17.1147 165.748 17.008 166.303 17.008C166.729 17.008 167.017 17.0187 167.167 17.04C167.337 17.0613 167.508 17.0827 167.679 17.104V20.624C167.423 20.5813 167.156 20.5493 166.879 20.528C166.623 20.4853 166.367 20.464 166.111 20.464C165.492 20.464 164.905 20.592 164.351 20.848C163.817 21.0827 163.348 21.4453 162.943 21.936C162.537 22.4053 162.217 22.992 161.983 23.696C161.748 24.4 161.631 25.2107 161.631 26.128V34H157.983V17.456ZM183.089 30.32C183.089 30.768 183.142 31.088 183.249 31.28C183.377 31.472 183.611 31.568 183.953 31.568C184.059 31.568 184.187 31.568 184.337 31.568C184.486 31.568 184.657 31.5467 184.849 31.504V34.032C184.721 34.0747 184.55 34.1173 184.337 34.16C184.145 34.224 183.942 34.2773 183.729 34.32C183.515 34.3627 183.302 34.3947 183.089 34.416C182.875 34.4373 182.694 34.448 182.545 34.448C181.798 34.448 181.179 34.2987 180.689 34C180.198 33.7013 179.878 33.1787 179.729 32.432C179.003 33.136 178.107 33.648 177.041 33.968C175.995 34.288 174.982 34.448 174.001 34.448C173.254 34.448 172.539 34.3413 171.857 34.128C171.174 33.936 170.566 33.648 170.033 33.264C169.521 32.8587 169.105 32.3573 168.785 31.76C168.486 31.1413 168.337 30.4267 168.337 29.616C168.337 28.592 168.518 27.76 168.881 27.12C169.265 26.48 169.755 25.9787 170.353 25.616C170.971 25.2533 171.654 24.9973 172.401 24.848C173.169 24.6773 173.937 24.5493 174.705 24.464C175.366 24.336 175.995 24.2507 176.593 24.208C177.19 24.144 177.713 24.048 178.161 23.92C178.63 23.792 178.993 23.6 179.249 23.344C179.526 23.0667 179.665 22.6613 179.665 22.128C179.665 21.6587 179.547 21.2747 179.313 20.976C179.099 20.6773 178.822 20.4533 178.481 20.304C178.161 20.1333 177.798 20.0267 177.393 19.984C176.987 19.92 176.603 19.888 176.241 19.888C175.217 19.888 174.374 20.1013 173.713 20.528C173.051 20.9547 172.678 21.616 172.593 22.512H168.945C169.009 21.4453 169.265 20.56 169.713 19.856C170.161 19.152 170.726 18.5867 171.409 18.16C172.113 17.7333 172.902 17.4347 173.777 17.264C174.651 17.0933 175.547 17.008 176.465 17.008C177.275 17.008 178.075 17.0933 178.865 17.264C179.654 17.4347 180.358 17.712 180.977 18.096C181.617 18.48 182.129 18.9813 182.513 19.6C182.897 20.1973 183.089 20.9333 183.089 21.808V30.32ZM179.441 25.712C178.886 26.0747 178.203 26.2987 177.393 26.384C176.582 26.448 175.771 26.5547 174.961 26.704C174.577 26.768 174.203 26.864 173.841 26.992C173.478 27.0987 173.158 27.2587 172.881 27.472C172.603 27.664 172.379 27.9307 172.209 28.272C172.059 28.592 171.985 28.9867 171.985 29.456C171.985 29.8613 172.102 30.2027 172.337 30.48C172.571 30.7573 172.849 30.9813 173.169 31.152C173.51 31.3013 173.873 31.408 174.257 31.472C174.662 31.536 175.025 31.568 175.345 31.568C175.75 31.568 176.187 31.5147 176.657 31.408C177.126 31.3013 177.563 31.12 177.969 30.864C178.395 30.608 178.747 30.288 179.025 29.904C179.302 29.4987 179.441 29.008 179.441 28.432V25.712Z" fill="#0F6CDD"/>
</svg>
