<svg width="20" height="20" viewBox="0 0 20 20" fill="none" xmlns="http://www.w3.org/2000/svg">
<path d="M6.50227 15.4094H13.5097V14.0552H6.50227V15.4094ZM6.50227 11.5765H13.5097V10.2224H6.50227V11.5765ZM4.63062 19C4.1785 19 3.79375 18.8394 3.47634 18.5182C3.15878 18.1968 3 17.8075 3 17.3501V2.64987C3 2.19251 3.15878 1.80316 3.47634 1.4818C3.79375 1.1606 4.17914 1 4.63253 1H12.1522L17 5.89371V17.3479C17 17.8068 16.8412 18.1968 16.5237 18.5182C16.2063 18.8394 15.8215 19 15.3694 19H4.63062ZM11.4926 6.57297V2.35416H4.63253C4.55888 2.35416 4.49144 2.38514 4.43023 2.44709C4.36885 2.5092 4.33816 2.57752 4.33816 2.65205V17.3479C4.33816 17.4225 4.36885 17.4908 4.43023 17.5529C4.49144 17.6149 4.55888 17.6458 4.63253 17.6458H15.3675C15.4411 17.6458 15.5086 17.6149 15.5698 17.5529C15.6312 17.4908 15.6618 17.4225 15.6618 17.3479V6.57297H11.4926Z" fill="#5046E5"/>
</svg>
