<svg width="32" height="33" viewBox="0 0 32 33" fill="none" xmlns="http://www.w3.org/2000/svg">
<g clip-path="url(#clip0_229_15779)">
<path d="M16 32.5127C12.5399 31.5138 9.67485 29.3596 7.40491 26.0499C5.13497 22.7406 4 19.0379 4 14.9417V5.25662L16 0.512695L28 5.25662V14.9417C28 19.0379 26.865 22.7406 24.5951 26.0499C22.3251 29.3596 19.4601 31.5138 16 32.5127ZM16 29.9718C18.8102 29.0204 21.1305 27.1376 22.9607 24.3234C24.7909 21.5091 25.706 18.3822 25.706 14.9425V6.89949L16 3.0933L6.29399 6.89949V14.9425C6.29399 18.3822 7.2091 21.5091 9.03932 24.3234C10.8695 27.1376 13.1898 29.0204 16 29.9718Z" fill="#5C5C5C"/>
</g>
<defs>
<clipPath id="clip0_229_15779">
<rect width="32" height="32" fill="white" transform="translate(0 0.5)"/>
</clipPath>
</defs>
</svg>
