<svg width="80" height="80" viewBox="0 0 80 80" fill="none" xmlns="http://www.w3.org/2000/svg">
<path d="M37.6767 52.2917V24.5192L29.5933 32.6025L26.3492 29.3233L40 15.6733L53.6667 29.3233L50.4233 32.6025L42.34 24.5192V52.2917H37.6767ZM21.3575 64.3267C19.7808 64.3267 18.4392 63.7736 17.3325 62.6675C16.2264 61.5608 15.6733 60.2183 15.6733 58.64V49.76H20.3367V58.6375C20.3367 58.8942 20.4433 59.1295 20.6567 59.3433C20.8706 59.5567 21.1058 59.6633 21.3625 59.6633H58.6375C58.8942 59.6633 59.1295 59.5567 59.3433 59.3433C59.5567 59.1295 59.6633 58.8942 59.6633 58.6375V49.76H64.3267V58.64C64.3267 60.2183 63.7736 61.5608 62.6675 62.6675C61.5608 63.7736 60.2192 64.3267 58.6425 64.3267H21.3575Z" fill="#0F6CDD"/>
</svg>
