<svg width="32" height="33" viewBox="0 0 32 33" fill="none" xmlns="http://www.w3.org/2000/svg">
<path d="M25.2731 19.0812V14.6128H20.705V12.5008H25.2731V8.03276H27.4323V12.5008H32V14.6128H27.4323V19.0812H25.2731ZM11.295 16.0965C9.84314 16.0965 8.60585 15.5963 7.58309 14.5959C6.56033 13.5954 6.04895 12.3851 6.04895 10.965C6.04895 9.54486 6.56033 8.33458 7.58309 7.33415C8.60585 6.33371 9.84314 5.8335 11.295 5.8335C12.7468 5.8335 13.9841 6.33371 15.0068 7.33415C16.0296 8.33458 16.541 9.54486 16.541 10.965C16.541 12.3851 16.0296 13.5954 15.0068 14.5959C13.9841 15.5963 12.7468 16.0965 11.295 16.0965ZM0 27.1668V23.9934C0 23.2733 0.196783 22.6115 0.590349 22.0082C0.984172 21.4045 1.52012 20.9383 2.19818 20.6094C3.70608 19.8978 5.21796 19.361 6.73384 18.9989C8.24997 18.6366 9.77034 18.4554 11.295 18.4554C12.8198 18.4554 14.3407 18.6365 15.8576 18.9985C17.3748 19.3604 18.8867 19.8971 20.3933 20.6086C21.0708 20.9378 21.6064 21.4041 22 22.0078C22.3933 22.6114 22.5899 23.2733 22.5899 23.9934V27.1668H0ZM2.15921 25.0547H20.4307V23.9953C20.4307 23.6836 20.3402 23.3967 20.1591 23.1348C19.978 22.8731 19.7281 22.6576 19.4094 22.4882C18.0864 21.8552 16.7478 21.3768 15.3934 21.0533C14.0394 20.7294 12.6728 20.5675 11.2938 20.5675C9.90603 20.5675 8.53729 20.7294 7.18759 21.0533C5.83764 21.3768 4.50427 21.8552 3.1875 22.4882C2.86416 22.6576 2.61194 22.8736 2.43085 23.1363C2.24976 23.399 2.15921 23.6847 2.15921 23.9934V25.0547ZM11.295 13.9844C12.1438 13.9844 12.8705 13.6888 13.475 13.0975C14.0795 12.5062 14.3817 11.7953 14.3817 10.965C14.3817 10.1347 14.0795 9.42384 13.475 8.83253C12.8705 8.24123 12.1438 7.94558 11.295 7.94558C10.4461 7.94558 9.71941 8.24123 9.11491 8.83253C8.51041 9.42384 8.20817 10.1347 8.20817 10.965C8.20817 11.7953 8.51041 12.5062 9.11491 13.0975C9.71941 13.6888 10.4461 13.9844 11.295 13.9844Z" fill="#5C5C5C"/>
</svg>
