<svg width="16" height="16" viewBox="0 0 16 16" fill="none" xmlns="http://www.w3.org/2000/svg">
<path d="M7.00607 9.69203L11.2904 5.26106L10.3428 4.29523L7.00607 7.75916L5.65717 6.36261L4.71413 7.34362L7.00607 9.69203ZM2 16V1.67193C2 1.20789 2.15713 0.813263 2.4714 0.488055C2.78552 0.162685 3.16629 0 3.61371 0H12.3863C12.8337 0 13.2145 0.162685 13.5286 0.488055C13.8429 0.813263 14 1.20789 14 1.67193V16L8 13.3463L2 16ZM3.32429 13.9042L8 11.8153L12.6757 13.9042V1.67267C12.6757 1.59721 12.6453 1.52811 12.5846 1.46539C12.5239 1.40251 12.4571 1.37106 12.3844 1.37106H3.6156C3.54287 1.37106 3.47614 1.40251 3.4154 1.46539C3.35466 1.52811 3.32429 1.59721 3.32429 1.67267V13.9042Z" fill="#5C5C5C"/>
</svg>
